<?xml version="1.0" encoding="UTF-8"?><!DOCTYPE svg PUBLIC "-//W3C//DTD SVG 1.1//EN" "http://www.w3.org/Graphics/SVG/1.1/DTD/svg11.dtd"><svg xmlns="http://www.w3.org/2000/svg"><symbol id="arrow-down" viewBox="0 0 20 11"><path d="M19.843.482L19.524.16a.534.534 0 0 0-.762 0l-8.76 8.877L1.239.16a.534.534 0 0 0-.762 0L.158.482a.55.55 0 0 0 0 .772l9.459 9.586c.21.213.551.213.762 0l9.459-9.586a.546.546 0 0 0 .005-.772z" fill="#000"/></symbol><symbol id="arrow-left" viewBox="0 0 7 12"><path d="M6.646 11.096l.176-.174a.291.291 0 0 0 0-.415L1.98 5.729 6.822.949a.291.291 0 0 0 0-.416L6.646.359a.3.3 0 0 0-.421 0L.996 5.519a.291.291 0 0 0 0 .415l5.229 5.16a.298.298 0 0 0 .421.002z"/></symbol><symbol id="arrow-right" viewBox="0 0 11 20"><path d="M.482.157L.16.476a.534.534 0 0 0 0 .762l8.877 8.76L.16 18.761a.534.534 0 0 0 0 .762l.322.318a.55.55 0 0 0 .772 0l9.586-9.459a.533.533 0 0 0 0-.762L1.254.162A.546.546 0 0 0 .482.157z" fill="#000"/></symbol><symbol id="close" viewBox="0 0 512 512"><path fill="currentColor" d="M256 8C119 8 8 119 8 256s111 248 248 248 248-111 248-248S393 8 256 8zm0 464c-118.7 0-216-96.1-216-216 0-118.7 96.1-216 216-216 118.7 0 216 96.1 216 216 0 118.7-96.1 216-216 216zm94.8-285.3L281.5 256l69.3 69.3c4.7 4.7 4.7 12.3 0 17l-8.5 8.5c-4.7 4.7-12.3 4.7-17 0L256 281.5l-69.3 69.3c-4.7 4.7-12.3 4.7-17 0l-8.5-8.5c-4.7-4.7-4.7-12.3 0-17l69.3-69.3-69.3-69.3c-4.7-4.7-4.7-12.3 0-17l8.5-8.5c4.7-4.7 12.3-4.7 17 0l69.3 69.3 69.3-69.3c4.7-4.7 12.3-4.7 17 0l8.5 8.5c4.6 4.7 4.6 12.3 0 17z"/></symbol><symbol id="email" viewBox="0 0 40 40"><path d="M38.64 12.853c-.367-.303-8.729-7.028-10.567-8.489C26.346 2.984 23.393 0 20 0c-3.375 0-6.3 2.947-8.073 4.364-1.911 1.52-10.24 8.218-10.559 8.48A3.75 3.75 0 0 0 0 15.741V36.25A3.75 3.75 0 0 0 3.75 40h32.5A3.75 3.75 0 0 0 40 36.25V15.743a3.75 3.75 0 0 0-1.36-2.89zM36.25 35.78a.469.469 0 0 1-.469.469H4.22a.469.469 0 0 1-.469-.469V15.965c0-.142.064-.276.174-.365 1.24-1 8.5-6.84 10.34-8.304C15.685 6.162 18.157 3.75 20 3.75c1.851 0 4.364 2.45 5.735 3.546 1.842 1.464 9.102 7.304 10.341 8.306a.466.466 0 0 1 .174.364v19.815zm-2.5-14.664c.333.403.271 1-.136 1.326-2.263 1.82-4.63 3.719-5.541 4.443C26.3 28.303 23.375 31.25 20 31.25c-3.395 0-6.35-2.987-8.073-4.364-.881-.7-3.261-2.61-5.541-4.443a.937.937 0 0 1-.137-1.326l1.192-1.448a.937.937 0 0 1 1.311-.135c2.236 1.797 4.576 3.675 5.513 4.42C15.636 25.049 18.149 27.5 20 27.5c1.844 0 4.316-2.413 5.735-3.546.937-.745 3.277-2.623 5.513-4.42a.937.937 0 0 1 1.31.136l1.193 1.447z" fill="#4F5962"/></symbol><symbol id="facebook" viewBox="0 0 448 512"><path fill="currentColor" d="M448 80v352c0 26.5-21.5 48-48 48h-85.3V302.8h60.6l8.7-67.6h-69.3V192c0-19.6 5.4-32.9 33.5-32.9H384V98.7c-6.2-.8-27.4-2.7-52.2-2.7-51.6 0-87 31.5-87 89.4v49.9H184v67.6h60.9V480H48c-26.5 0-48-21.5-48-48V80c0-26.5 21.5-48 48-48h352c26.5 0 48 21.5 48 48z"/></symbol><symbol id="globe" viewBox="0 0 50 48"><path fill="none" d="M0 .622h50v47.102H0z"/><path d="M25 .622c-13.807 0-25 10.544-25 23.55C0 37.18 11.193 47.725 25 47.725S50 37.18 50 24.173C50 11.166 38.807.622 25 .622zm8.295 33.959l-1.14 1.071a2.241 2.241 0 0 0-.622 1.017c-.152.538-.275 1.08-.48 1.602l-1.754 4.45a21.335 21.335 0 0 1-4.299.445v-2.6c.17-1.199-.77-3.444-2.281-4.867a2.952 2.952 0 0 1-.945-2.15v-3.04c0-1.105-.632-2.12-1.66-2.655-1.448-.755-3.508-1.81-4.92-2.48a14.593 14.593 0 0 1-3.19-2.065l-.08-.069a11.125 11.125 0 0 1-1.821-1.97 1566.17 1566.17 0 0 1-3.487-4.856c2.063-4.32 5.782-7.79 10.403-9.676l2.42 1.141c1.073.505 2.335-.229 2.335-1.359V5.447c.806-.123 1.625-.2 2.459-.23l2.853 2.688c.63.593.63 1.555 0 2.149l-.473.444-1.042.982a.73.73 0 0 0 0 1.074l.472.445a.73.73 0 0 1 0 1.074l-.806.76a.833.833 0 0 1-.57.222h-.907a.832.832 0 0 0-.562.216l-1 .916a.747.747 0 0 0-.233.418.722.722 0 0 0 .073.466l1.572 2.962c.268.506-.122 1.1-.72 1.1h-.57a.836.836 0 0 1-.528-.186l-.935-.765a1.656 1.656 0 0 0-.742-.343 1.71 1.71 0 0 0-.826.048l-3.142.987c-.24.075-.448.22-.596.413a1.09 1.09 0 0 0-.227.664c0 .43.258.822.666 1.015l1.117.526c.948.447 1.995.68 3.055.68s2.277 2.591 3.226 3.039h6.729c.856 0 1.675.32 2.281.89l1.38 1.3c.577.543.9 1.28.9 2.048 0 .582-.122 1.159-.36 1.696a4.414 4.414 0 0 1-1.023 1.436zm8.741-8.675a2.422 2.422 0 0 1-1.426-.947l-1.813-2.561a2.184 2.184 0 0 1-.406-1.264c0-.45.141-.89.406-1.264l1.975-2.79c.234-.33.555-.597.932-.774l1.308-.616c1.363 2.556 2.15 5.432 2.15 8.483 0 .823-.075 1.63-.184 2.425l-2.942-.692z" /></symbol><symbol id="linkedin" viewBox="0 0 50 48"><path fill="none" d="M0 .622h50v47.102H0z"/><path d="M11.192 47.724H.826V16.277h10.366v31.447zM6.003 11.987C2.69 11.987 0 9.401 0 6.278 0 3.156 2.69.622 6.003.622c3.314 0 6.003 2.534 6.003 5.656 0 3.123-2.689 5.71-6.003 5.71zM49.99 47.724H39.645V32.416c0-3.648-.078-8.327-5.39-8.327-5.389 0-6.214 3.963-6.214 8.064v15.571H17.686V16.277h9.942v4.29h.145c1.383-2.471 4.764-5.079 9.808-5.079C48.07 15.488 50 21.997 50 30.45v17.274h-.011z"/></symbol><symbol id="logo"><path d="M0 23.76h3.556v12.302a1.778 1.778 0 1 1-3.556 0V23.76z" fill="#1E824C"/><path d="M0 11.458a1.778 1.778 0 1 1 3.556 0V23.76H0V11.458z" fill="#F4D03F"/><path d="M0 11.458a1.778 1.778 0 1 1 3.556 0V23.76H0V11.458zm7.111-.898h3.556v13.2H7.11v-13.2z" fill="#F4D03F"/><path d="M7.111 7.058a1.778 1.778 0 0 1 3.556 0v3.502H7.11V7.058zm14.222 0a1.778 1.778 0 0 1 3.556 0v3.502h-3.556V7.058zM14.222 5.28h3.556v5.28h-3.556V5.28z" fill="#E87E04"/><path d="M14.222 1.778a1.778 1.778 0 0 1 3.556 0V5.28h-3.556V1.778z" fill="#D64541"/><path d="M28.445 10.578a1.778 1.778 0 1 1 3.555 0V23.76h-3.555V10.578zm-7.112-.018h3.556v13.2h-3.556v-13.2zm-7.111 0h3.556v13.2h-3.556v-13.2z" fill="#F4D03F"/><path d="M14.222 23.76h3.556v18.462a1.778 1.778 0 0 1-3.556 0V23.76zm7.111 0h3.556v14.942a1.778 1.778 0 0 1-3.556 0V23.76zm7.112 0H32v11.422a1.778 1.778 0 1 1-3.555 0V23.76zm-21.334 0h3.556v14.942a1.778 1.778 0 1 1-3.556 0V23.76z" fill="#1E824C"/><path d="M44.9 27.625v-10.45c0-.433.142-.792.425-1.075.3-.3.658-.45 1.075-.45.433 0 .792.15 1.075.45.3.3.45.658.45 1.075v.65c1.067-1.533 2.442-2.3 4.125-2.3 1.467 0 2.617.458 3.45 1.375.833.9 1.25 2.125 1.25 3.675v7.05c0 .417-.142.775-.425 1.075-.283.283-.642.425-1.075.425-.433 0-.8-.142-1.1-.425a1.511 1.511 0 0 1-.425-1.075V21.5c0-1.033-.25-1.825-.75-2.375-.483-.567-1.175-.85-2.075-.85-.883 0-1.6.292-2.15.875-.55.583-.825 1.383-.825 2.4v6.075c0 .417-.15.775-.45 1.075-.283.283-.642.425-1.075.425-.417 0-.775-.142-1.075-.425a1.511 1.511 0 0 1-.425-1.075zM66.678 29.3c-2 0-3.667-.658-5-1.975-1.333-1.333-2-2.95-2-4.85v-.05c0-1.917.675-3.542 2.025-4.875 1.35-1.35 3.025-2.025 5.025-2.025 2 0 3.667.667 5 2 1.35 1.333 2.025 2.95 2.025 4.85v.05c0 1.9-.675 3.525-2.025 4.875-1.35 1.333-3.033 2-5.05 2zm.05-2.65c1.2 0 2.167-.4 2.9-1.2.733-.817 1.1-1.808 1.1-2.975v-.05c0-1.183-.383-2.183-1.15-3-.767-.833-1.733-1.25-2.9-1.25-1.183 0-2.142.408-2.875 1.225-.733.8-1.1 1.792-1.1 2.975v.05c0 1.167.383 2.167 1.15 3 .767.817 1.725 1.225 2.875 1.225zM76.784 12.4v-.15c0-.45.158-.808.475-1.075.333-.267.75-.4 1.25-.4s.908.133 1.225.4c.333.267.5.625.5 1.075v.15c0 .45-.167.817-.5 1.1-.317.267-.725.4-1.225.4-.5 0-.917-.133-1.25-.4-.317-.283-.475-.65-.475-1.1zm.225 15.225v-10.45c0-.433.141-.792.425-1.075.3-.3.658-.45 1.075-.45.416 0 .775.15 1.075.45.3.3.45.658.45 1.075v10.45c0 .417-.15.775-.45 1.075-.284.283-.642.425-1.075.425-.417 0-.775-.142-1.075-.425a1.511 1.511 0 0 1-.425-1.075zm11.503 1.625c-1.817 0-3.492-.525-5.025-1.575-.383-.2-.575-.55-.575-1.05 0-.333.117-.617.35-.85.233-.25.525-.375.875-.375.233 0 .45.058.65.175 1.267.85 2.533 1.275 3.8 1.275.65 0 1.15-.125 1.5-.375.367-.267.55-.617.55-1.05v-.05c0-.633-.883-1.217-2.65-1.75a3.07 3.07 0 0 0-.3-.1c-.6-.167-1.1-.333-1.5-.5a8.701 8.701 0 0 1-1.275-.675c-.45-.3-.792-.675-1.025-1.125-.217-.45-.325-.975-.325-1.575v-.05c0-1.217.442-2.192 1.325-2.925.9-.733 2.025-1.1 3.375-1.1 1.417 0 2.8.358 4.15 1.075.483.25.725.633.725 1.15 0 .35-.125.642-.375.875-.233.233-.525.35-.875.35-.2 0-.4-.05-.6-.15-1.167-.6-2.2-.9-3.1-.9-.567 0-1.017.125-1.35.375-.333.233-.5.542-.5.925v.05c0 .417.225.75.675 1 .45.233 1.133.5 2.05.8a12.824 12.824 0 0 1 1.725.625c.4.167.817.4 1.25.7.45.3.792.667 1.025 1.1.233.433.35.933.35 1.5v.05c0 1.333-.458 2.358-1.375 3.075-.917.717-2.092 1.075-3.525 1.075zm10.274-7.775h6.775c-.1-1.017-.441-1.85-1.025-2.5-.583-.65-1.358-.975-2.325-.975-.916 0-1.683.325-2.3.975-.616.633-.991 1.467-1.125 2.5zm8.525 6.075c-1.3 1.167-2.883 1.75-4.75 1.75-1.933 0-3.55-.633-4.85-1.9-1.283-1.283-1.925-2.933-1.925-4.95v-.05c0-1.917.609-3.542 1.825-4.875 1.217-1.333 2.759-2 4.625-2 1.334 0 2.492.342 3.475 1.025.984.667 1.692 1.483 2.125 2.45.45.95.675 1.958.675 3.025 0 .417-.141.767-.425 1.05-.266.267-.6.4-1 .4h-8.275c.167 1.05.592 1.875 1.275 2.475.684.583 1.525.875 2.525.875 1.15 0 2.192-.383 3.125-1.15.234-.183.492-.275.775-.275.334 0 .617.117.85.35.234.233.35.525.35.875s-.133.658-.4.925zm10.388 1.75c-1.95 0-3.575-.658-4.875-1.975-1.3-1.333-1.95-2.95-1.95-4.85v-.05c0-1.9.65-3.525 1.95-4.875 1.317-1.35 2.959-2.025 4.925-2.025 1.817 0 3.359.55 4.625 1.65.317.283.475.633.475 1.05 0 .383-.141.708-.425.975-.266.267-.591.4-.975.4-.333 0-.633-.1-.9-.3-.9-.75-1.841-1.125-2.825-1.125-1.083 0-1.991.408-2.725 1.225-.733.817-1.1 1.808-1.1 2.975v.05c0 1.183.367 2.183 1.1 3 .75.817 1.7 1.225 2.85 1.225 1.05 0 2.034-.392 2.95-1.175a1.23 1.23 0 0 1 .825-.325c.367 0 .675.133.925.4.25.25.375.558.375.925 0 .4-.141.717-.425.95-1.3 1.25-2.9 1.875-4.8 1.875zm8.182-1.675v-10.45c0-.433.142-.792.425-1.075.3-.3.659-.45 1.075-.45.434 0 .792.15 1.075.45.3.3.45.658.45 1.075v1.35c.367-.85.85-1.542 1.45-2.075.6-.55 1.225-.825 1.875-.825.467 0 .834.142 1.1.425.267.267.4.625.4 1.075 0 .383-.116.708-.35.975-.216.25-.5.408-.85.475-1.116.2-2 .733-2.65 1.6-.65.85-.975 2.033-.975 3.55v3.9c0 .417-.15.775-.45 1.075a1.51 1.51 0 0 1-1.075.425c-.416 0-.775-.142-1.075-.425a1.513 1.513 0 0 1-.425-1.075zm12.163-6.15h6.775c-.1-1.017-.442-1.85-1.025-2.5-.583-.65-1.358-.975-2.325-.975-.917 0-1.683.325-2.3.975-.617.633-.992 1.467-1.125 2.5zm8.525 6.075c-1.3 1.167-2.883 1.75-4.75 1.75-1.933 0-3.55-.633-4.85-1.9-1.283-1.283-1.925-2.933-1.925-4.95v-.05c0-1.917.608-3.542 1.825-4.875 1.217-1.333 2.758-2 4.625-2 1.333 0 2.492.342 3.475 1.025.983.667 1.692 1.483 2.125 2.45.45.95.675 1.958.675 3.025 0 .417-.142.767-.425 1.05-.267.267-.6.4-1 .4h-8.275c.167 1.05.592 1.875 1.275 2.475.683.583 1.525.875 2.525.875 1.15 0 2.192-.383 3.125-1.15.233-.183.492-.275.775-.275.333 0 .617.117.85.35.233.233.35.525.35.875s-.133.658-.4.925zm8.088 1.725c-1.3 0-2.408-.358-3.325-1.075-.9-.733-1.35-1.733-1.35-3v-.05c0-1.383.492-2.433 1.475-3.15.983-.733 2.308-1.1 3.975-1.1 1.217 0 2.4.183 3.55.55v-.325c0-.933-.283-1.642-.85-2.125-.55-.5-1.358-.75-2.425-.75-1.067 0-2.042.175-2.925.525-.183.05-.342.075-.475.075-.35 0-.65-.117-.9-.35-.25-.25-.375-.55-.375-.9 0-.583.275-.983.825-1.2a11.92 11.92 0 0 1 4.25-.775c1.967 0 3.425.492 4.375 1.475.95.933 1.425 2.292 1.425 4.075v6.5c0 .417-.142.767-.425 1.05-.283.267-.633.4-1.05.4-.433 0-.792-.125-1.075-.375a1.19 1.19 0 0 1-.4-.9v-.5c-1.067 1.283-2.5 1.925-4.3 1.925zm.85-2.2c1.017 0 1.858-.258 2.525-.775.667-.533 1-1.217 1-2.05v-.9c-.9-.35-1.9-.525-3-.525-.967 0-1.725.2-2.275.6-.55.383-.825.917-.825 1.6v.05c0 .617.242 1.108.725 1.475.483.35 1.1.525 1.85.525zm14.326 2.15c-2.534 0-3.8-1.292-3.8-3.875V18.4h-.5c-.367 0-.675-.125-.925-.375a1.257 1.257 0 0 1-.375-.925c0-.367.125-.675.375-.925s.558-.375.925-.375h.5v-2.25c0-.417.15-.767.45-1.05.3-.3.658-.45 1.075-.45.416 0 .766.15 1.05.45.3.283.45.633.45 1.05v2.25h2.375c.366 0 .675.125.925.375.266.25.4.558.4.925s-.134.675-.4.925c-.25.25-.559.375-.925.375h-2.375v6.475c0 1.1.541 1.65 1.625 1.65.133 0 .283-.008.45-.025.183-.033.283-.05.3-.05.35 0 .65.125.9.375.25.233.375.525.375.875 0 .567-.267.958-.8 1.175a6.241 6.241 0 0 1-2.075.35zm5.803-16.825v-.15c0-.45.158-.808.475-1.075.333-.267.75-.4 1.25-.4s.908.133 1.225.4c.333.267.5.625.5 1.075v.15c0 .45-.167.817-.5 1.1-.317.267-.725.4-1.225.4-.5 0-.917-.133-1.25-.4-.317-.283-.475-.65-.475-1.1zm.225 15.225v-10.45c0-.433.142-.792.425-1.075.3-.3.658-.45 1.075-.45.417 0 .775.15 1.075.45.3.3.45.658.45 1.075v10.45c0 .417-.15.775-.45 1.075-.283.283-.642.425-1.075.425a1.51 1.51 0 0 1-1.075-.425 1.513 1.513 0 0 1-.425-1.075zm13.253 1.675c-2 0-3.666-.658-5-1.975-1.333-1.333-2-2.95-2-4.85v-.05c0-1.917.675-3.542 2.025-4.875 1.35-1.35 3.025-2.025 5.025-2.025 2 0 3.667.667 5 2 1.35 1.333 2.025 2.95 2.025 4.85v.05c0 1.9-.675 3.525-2.025 4.875-1.35 1.333-3.033 2-5.05 2zm.05-2.65c1.2 0 2.167-.4 2.9-1.2.734-.817 1.1-1.808 1.1-2.975v-.05c0-1.183-.383-2.183-1.15-3-.766-.833-1.733-1.25-2.9-1.25-1.183 0-2.141.408-2.875 1.225-.733.8-1.1 1.792-1.1 2.975v.05c0 1.167.384 2.167 1.15 3 .767.817 1.725 1.225 2.875 1.225zm10.106.975v-10.45c0-.433.142-.792.425-1.075.3-.3.658-.45 1.075-.45.433 0 .792.15 1.075.45.3.3.45.658.45 1.075v.65c1.067-1.533 2.442-2.3 4.125-2.3 1.467 0 2.617.458 3.45 1.375.833.9 1.25 2.125 1.25 3.675v7.05c0 .417-.142.775-.425 1.075-.283.283-.642.425-1.075.425-.433 0-.8-.142-1.1-.425a1.513 1.513 0 0 1-.425-1.075V21.5c0-1.033-.25-1.825-.75-2.375-.483-.567-1.175-.85-2.075-.85-.883 0-1.6.292-2.15.875-.55.583-.825 1.383-.825 2.4v6.075c0 .417-.15.775-.45 1.075-.283.283-.642.425-1.075.425a1.51 1.51 0 0 1-1.075-.425 1.513 1.513 0 0 1-.425-1.075zm20.028 1.625c-1.817 0-3.492-.525-5.025-1.575-.383-.2-.575-.55-.575-1.05 0-.333.117-.617.35-.85.233-.25.525-.375.875-.375.233 0 .45.058.65.175 1.267.85 2.533 1.275 3.8 1.275.65 0 1.15-.125 1.5-.375.367-.267.55-.617.55-1.05v-.05c0-.633-.883-1.217-2.65-1.75a3.018 3.018 0 0 0-.3-.1c-.6-.167-1.1-.333-1.5-.5a8.701 8.701 0 0 1-1.275-.675c-.45-.3-.792-.675-1.025-1.125-.217-.45-.325-.975-.325-1.575v-.05c0-1.217.442-2.192 1.325-2.925.9-.733 2.025-1.1 3.375-1.1 1.417 0 2.8.358 4.15 1.075.483.25.725.633.725 1.15 0 .35-.125.642-.375.875-.233.233-.525.35-.875.35-.2 0-.4-.05-.6-.15-1.167-.6-2.2-.9-3.1-.9-.567 0-1.017.125-1.35.375-.333.233-.5.542-.5.925v.05c0 .417.225.75.675 1 .45.233 1.133.5 2.05.8a12.846 12.846 0 0 1 1.725.625c.4.167.817.4 1.25.7.45.3.792.667 1.025 1.1.233.433.35.933.35 1.5v.05c0 1.333-.458 2.358-1.375 3.075-.917.717-2.092 1.075-3.525 1.075z" fill="#F6F7F8"/></symbol><symbol id="soundcloud" viewBox="0 0 640 512"><path d="M111.4 256.3l5.8 65-5.8 68.3c-.3 2.5-2.2 4.4-4.4 4.4s-4.2-1.9-4.2-4.4l-5.6-68.3 5.6-65c0-2.2 1.9-4.2 4.2-4.2 2.2 0 4.1 2 4.4 4.2zm21.4-45.6c-2.8 0-4.7 2.2-5 5l-5 105.6 5 68.3c.3 2.8 2.2 5 5 5 2.5 0 4.7-2.2 4.7-5l5.8-68.3-5.8-105.6c0-2.8-2.2-5-4.7-5zm25.5-24.1c-3.1 0-5.3 2.2-5.6 5.3l-4.4 130 4.4 67.8c.3 3.1 2.5 5.3 5.6 5.3 2.8 0 5.3-2.2 5.3-5.3l5.3-67.8-5.3-130c0-3.1-2.5-5.3-5.3-5.3zM7.2 283.2c-1.4 0-2.2 1.1-2.5 2.5L0 321.3l4.7 35c.3 1.4 1.1 2.5 2.5 2.5s2.2-1.1 2.5-2.5l5.6-35-5.6-35.6c-.3-1.4-1.1-2.5-2.5-2.5zm23.6-21.9c-1.4 0-2.5 1.1-2.5 2.5l-6.4 57.5 6.4 56.1c0 1.7 1.1 2.8 2.5 2.8s2.5-1.1 2.8-2.5l7.2-56.4-7.2-57.5c-.3-1.4-1.4-2.5-2.8-2.5zm25.3-11.4c-1.7 0-3.1 1.4-3.3 3.3L47 321.3l5.8 65.8c.3 1.7 1.7 3.1 3.3 3.1 1.7 0 3.1-1.4 3.1-3.1l6.9-65.8-6.9-68.1c0-1.9-1.4-3.3-3.1-3.3zm25.3-2.2c-1.9 0-3.6 1.4-3.6 3.6l-5.8 70 5.8 67.8c0 2.2 1.7 3.6 3.6 3.6s3.6-1.4 3.9-3.6l6.4-67.8-6.4-70c-.3-2.2-2-3.6-3.9-3.6zm241.4-110.9c-1.1-.8-2.8-1.4-4.2-1.4-2.2 0-4.2.8-5.6 1.9-1.9 1.7-3.1 4.2-3.3 6.7v.8l-3.3 176.7 1.7 32.5 1.7 31.7c.3 4.7 4.2 8.6 8.9 8.6s8.6-3.9 8.6-8.6l3.9-64.2-3.9-177.5c-.4-3-2-5.8-4.5-7.2zm-26.7 15.3c-1.4-.8-2.8-1.4-4.4-1.4s-3.1.6-4.4 1.4c-2.2 1.4-3.6 3.9-3.6 6.7l-.3 1.7-2.8 160.8s0 .3 3.1 65.6v.3c0 1.7.6 3.3 1.7 4.7 1.7 1.9 3.9 3.1 6.4 3.1 2.2 0 4.2-1.1 5.6-2.5 1.7-1.4 2.5-3.3 2.5-5.6l.3-6.7 3.1-58.6-3.3-162.8c-.3-2.8-1.7-5.3-3.9-6.7zm-111.4 22.5c-3.1 0-5.8 2.8-5.8 6.1l-4.4 140.6 4.4 67.2c.3 3.3 2.8 5.8 5.8 5.8 3.3 0 5.8-2.5 6.1-5.8l5-67.2-5-140.6c-.2-3.3-2.7-6.1-6.1-6.1zm376.7 62.8c-10.8 0-21.1 2.2-30.6 6.1-6.4-70.8-65.8-126.4-138.3-126.4-17.8 0-35 3.3-50.3 9.4-6.1 2.2-7.8 4.4-7.8 9.2v249.7c0 5 3.9 8.6 8.6 9.2h218.3c43.3 0 78.6-35 78.6-78.3.1-43.6-35.2-78.9-78.5-78.9zm-296.7-60.3c-4.2 0-7.5 3.3-7.8 7.8l-3.3 136.7 3.3 65.6c.3 4.2 3.6 7.5 7.8 7.5 4.2 0 7.5-3.3 7.5-7.5l3.9-65.6-3.9-136.7c-.3-4.5-3.3-7.8-7.5-7.8zm-53.6-7.8c-3.3 0-6.4 3.1-6.4 6.7l-3.9 145.3 3.9 66.9c.3 3.6 3.1 6.4 6.4 6.4 3.6 0 6.4-2.8 6.7-6.4l4.4-66.9-4.4-145.3c-.3-3.6-3.1-6.7-6.7-6.7zm26.7 3.4c-3.9 0-6.9 3.1-6.9 6.9L227 321.3l3.9 66.4c.3 3.9 3.1 6.9 6.9 6.9s6.9-3.1 6.9-6.9l4.2-66.4-4.2-141.7c0-3.9-3-6.9-6.9-6.9z"/></symbol><symbol id="tick" viewBox="0 0 19 18"><path d="M19 9c0 4.97-4.253 9-9.5 9S0 13.97 0 9s4.253-9 9.5-9S19 4.03 19 9zM8.401 13.765l7.049-6.677a.56.56 0 0 0 0-.821l-.867-.821a.637.637 0 0 0-.867 0L7.968 10.89 5.284 8.35a.637.637 0 0 0-.867 0l-.867.821a.56.56 0 0 0 0 .821l3.984 3.774c.24.227.628.227.867 0z" fill="#fff"/></symbol><symbol id="twitter" viewBox="0 0 57 45"><path fill="none" d="M0 .448h57v44.276H0z"/><path d="M51.141 11.482c.036.485.036.969.036 1.453 0 14.77-11.754 31.789-33.238 31.789-6.619 0-12.767-1.833-17.939-5.016.94.104 1.844.139 2.821.139 5.461 0 10.489-1.764 14.503-4.774-5.136-.104-9.44-3.32-10.922-7.748a15.39 15.39 0 0 0 2.206.173c1.049 0 2.098-.139 3.074-.38-5.353-1.038-9.367-5.535-9.367-10.966v-.138c1.555.83 3.363 1.349 5.28 1.418-3.147-2.006-5.208-5.43-5.208-9.305 0-2.075.579-3.978 1.591-5.638C9.73 9.269 18.373 13.696 28.066 14.18c-.18-.83-.29-1.694-.29-2.56C27.777 5.465 32.986.449 39.46.449c3.363 0 6.401 1.349 8.535 3.528a23.648 23.648 0 0 0 7.415-2.698c-.868 2.595-2.713 4.774-5.136 6.157 2.35-.242 4.63-.865 6.727-1.73a24.544 24.544 0 0 1-5.859 5.777z"/></symbol></svg>