<svg width="40" height="40" viewBox="0 0 40 40" fill="none" xmlns="http://www.w3.org/2000/svg">
<path d="M38.6395 12.8528C38.2726 12.5495 29.9112 5.82547 28.073 4.36398C26.3462 2.98367 23.3935 0 20 0C16.6246 0 13.7003 2.94664 11.927 4.36398C10.0158 5.88352 1.68711 12.5823 1.36836 12.8444C0.940518 13.1962 0.595918 13.6384 0.359324 14.1392C0.12273 14.6401 1.57109e-05 15.1871 0 15.741L0 36.25C0 38.3211 1.67891 40 3.75 40H36.25C38.3211 40 40 38.3211 40 36.25V15.7429C40 15.1907 39.8781 14.6453 39.6429 14.1458C39.4077 13.6462 39.0651 13.2047 38.6395 12.8528ZM36.25 35.7812C36.25 35.9056 36.2006 36.0248 36.1127 36.1127C36.0248 36.2006 35.9056 36.25 35.7812 36.25H4.21875C4.09443 36.25 3.9752 36.2006 3.88729 36.1127C3.79939 36.0248 3.75 35.9056 3.75 35.7812V15.9646C3.75 15.823 3.81375 15.6891 3.92391 15.6002C5.16375 14.5991 12.4234 8.76 14.2648 7.29602C15.684 6.1625 18.1561 3.75 20 3.75C21.851 3.75 24.3638 6.2007 25.7352 7.29602C27.5768 8.76016 34.837 14.6002 36.0762 15.602C36.1306 15.6459 36.1744 15.7014 36.2044 15.7644C36.2345 15.8274 36.2501 15.8964 36.25 15.9662V35.7812ZM33.7507 21.1169C34.0827 21.5199 34.0214 22.1165 33.6144 22.4435C31.3507 24.2625 28.9836 26.162 28.073 26.8859C26.2997 28.3034 23.3754 31.25 20 31.25C16.6053 31.25 13.6495 28.2627 11.927 26.8859C11.0458 26.1854 8.6657 24.2755 6.38578 22.4434C5.97875 22.1162 5.91758 21.5198 6.24945 21.1167L7.44148 19.6692C7.76789 19.2729 8.35219 19.2127 8.75234 19.5344C10.9881 21.3313 13.3278 23.209 14.2648 23.954C15.6362 25.0493 18.149 27.5 20 27.5C21.8439 27.5 24.3161 25.0875 25.7352 23.954C26.6722 23.2091 29.012 21.3313 31.2479 19.5346C31.648 19.213 32.2323 19.2732 32.5587 19.6695L33.7507 21.1169Z" fill="#4F5962"/>
</svg>
