<svg width="50" height="48" viewBox="0 0 50 48" fill="none" xmlns="http://www.w3.org/2000/svg">
<rect width="50" height="47.1022" fill="black" fill-opacity="0" transform="translate(0 0.621826)"/>
<path d="M25 0.621826C11.1925 0.621826 0 11.1657 0 24.1729C0 37.1801 11.1925 47.724 25 47.724C38.8075 47.724 50 37.1801 50 24.1729C50 11.1657 38.8075 0.621826 25 0.621826ZM33.2954 34.581C32.9022 34.9494 32.4899 35.3359 32.1552 35.6522C31.8538 35.9371 31.6411 36.2884 31.5333 36.6692C31.381 37.2067 31.2581 37.7499 31.0524 38.2713L29.2994 42.7203C27.9123 43.0052 26.4768 43.1657 25 43.1657V40.5656C25.1704 39.3672 24.2298 37.1222 22.7188 35.6987C22.1139 35.1289 21.7742 34.3559 21.7742 33.5497V30.5099C21.7742 29.4045 21.1421 28.3884 20.1149 27.8537C18.6663 27.0987 16.6058 26.0437 15.1946 25.3742C14.0373 24.8253 12.9667 24.1264 12.004 23.3087L11.9234 23.2404C11.2349 22.6549 10.6237 21.9937 10.1028 21.2708C9.15726 19.9632 7.61694 17.8122 6.61593 16.4143C8.67943 12.0935 12.3982 8.6235 17.0192 6.73846L19.4395 7.87898C20.5121 8.38419 21.7742 7.65011 21.7742 6.52004V5.44695C22.5796 5.32445 23.3992 5.24657 24.2329 5.21714L27.0857 7.90462C27.7157 8.49814 27.7157 9.46013 27.0857 10.0537L26.6129 10.4981L25.5706 11.48C25.256 11.7763 25.256 12.2578 25.5706 12.5541L26.0433 12.9994C26.3579 13.2957 26.3579 13.7772 26.0433 14.0735L25.2369 14.8332C25.0855 14.9756 24.8803 15.0555 24.6663 15.0554H23.7601C23.5504 15.0554 23.3488 15.1323 23.1976 15.271L22.1976 16.1874C22.075 16.2998 21.9935 16.4461 21.9649 16.605C21.9363 16.7639 21.962 16.9272 22.0383 17.0715L23.6099 20.0334C23.878 20.5386 23.4879 21.1331 22.8891 21.1331H22.3206C22.126 21.1331 21.9385 21.0666 21.7923 20.947L20.8569 20.1816C20.6452 20.0086 20.3893 19.8904 20.1145 19.8388C19.8396 19.7872 19.5553 19.8039 19.2893 19.8872L16.1472 20.8739C15.9073 20.9492 15.6987 21.0938 15.5508 21.287C15.403 21.4803 15.3235 21.7125 15.3236 21.9507C15.3236 22.3809 15.5817 22.7731 15.9899 22.9659L17.1069 23.492C18.0554 23.9393 19.1018 24.172 20.1623 24.172C21.2228 24.172 22.4395 26.7635 23.3881 27.2108H30.1169C30.9728 27.2108 31.7923 27.5308 32.3982 28.1006L33.7782 29.4007C34.3548 29.944 34.6786 30.6808 34.6784 31.4491C34.6782 32.0312 34.5559 32.6075 34.3186 33.145C34.0812 33.6825 33.7335 34.1705 33.2954 34.581ZM42.0363 25.906C41.4526 25.7683 40.9436 25.4312 40.6099 24.9592L38.7974 22.398C38.5322 22.0238 38.3906 21.584 38.3906 21.1341C38.3906 20.6841 38.5322 20.2443 38.7974 19.8701L40.7722 17.08C41.006 16.7505 41.3266 16.4827 41.7036 16.3061L43.0121 15.6898C44.375 18.2462 45.1613 21.1217 45.1613 24.1729C45.1613 24.9962 45.0867 25.8025 44.9778 26.5983L42.0363 25.906Z" fill="#4F5962"/>
</svg>
