<svg width="50" height="48" viewBox="0 0 50 48" fill="none" xmlns="http://www.w3.org/2000/svg">
<rect width="50" height="47.1022" fill="black" fill-opacity="0" transform="translate(0 0.621826)"/>
<path d="M11.1917 47.724H0.825709V16.277H11.1917V47.724ZM6.00312 11.9873C2.68913 11.9873 0 9.40091 0 6.27829C0 3.15567 2.68913 0.621826 6.00312 0.621826C9.31712 0.621826 12.0062 3.15567 12.0062 6.27829C12.0062 9.40091 9.31712 11.9873 6.00312 11.9873ZM49.9888 47.724H39.6452V32.4158C39.6452 28.7675 39.5671 24.0888 34.2557 24.0888C28.8663 24.0888 28.0406 28.0525 28.0406 32.1529V47.724H17.6858V16.277H27.6278V20.5666H27.7728C29.1564 18.0959 32.5374 15.4884 37.5809 15.4884C48.0696 15.4884 50 21.9965 50 30.4497V47.724H49.9888Z" fill="#4F5962"/>
</svg>
