<svg width="225" height="44" fill="none" xmlns="http://www.w3.org/2000/svg"><path d="M0 23.76h3.556v12.302a1.778 1.778 0 1 1-3.556 0V23.76z" fill="#1E824C"/><path d="M0 11.458a1.778 1.778 0 1 1 3.556 0V23.76H0V11.458z" fill="#F4D03F"/><path d="M0 11.458a1.778 1.778 0 1 1 3.556 0V23.76H0V11.458zM7.111 10.56h3.556v13.2H7.11v-13.2z" fill="#F4D03F"/><path d="M7.111 7.058a1.778 1.778 0 0 1 3.556 0v3.502H7.11V7.058zM21.333 7.058a1.778 1.778 0 0 1 3.556 0v3.502h-3.556V7.058zM14.222 5.28h3.556v5.28h-3.556V5.28z" fill="#E87E04"/><path d="M14.222 1.778a1.778 1.778 0 0 1 3.556 0V5.28h-3.556V1.778z" fill="#D64541"/><path d="M28.445 10.578a1.778 1.778 0 1 1 3.555 0V23.76h-3.555V10.578zM21.333 10.56h3.556v13.2h-3.556v-13.2zM14.222 10.56h3.556v13.2h-3.556v-13.2z" fill="#F4D03F"/><path d="M14.222 23.76h3.556v18.462a1.778 1.778 0 0 1-3.556 0V23.76zM21.333 23.76h3.556v14.942a1.778 1.778 0 0 1-3.556 0V23.76zM28.445 23.76H32v11.422a1.778 1.778 0 1 1-3.555 0V23.76zM7.111 23.76h3.556v14.942a1.778 1.778 0 1 1-3.556 0V23.76z" fill="#1E824C"/><path d="M44.9 27.625v-10.45c0-.433.142-.792.425-1.075.3-.3.658-.45 1.075-.45.433 0 .792.15 1.075.45.3.3.45.658.45 1.075v.65c1.067-1.533 2.442-2.3 4.125-2.3 1.467 0 2.617.458 3.45 1.375.833.9 1.25 2.125 1.25 3.675v7.05c0 .417-.142.775-.425 1.075-.283.283-.642.425-1.075.425-.433 0-.8-.142-1.1-.425a1.511 1.511 0 0 1-.425-1.075V21.5c0-1.033-.25-1.825-.75-2.375-.483-.567-1.175-.85-2.075-.85-.883 0-1.6.292-2.15.875-.55.583-.825 1.383-.825 2.4v6.075c0 .417-.15.775-.45 1.075-.283.283-.642.425-1.075.425-.417 0-.775-.142-1.075-.425a1.511 1.511 0 0 1-.425-1.075zM66.678 29.3c-2 0-3.667-.658-5-1.975-1.333-1.333-2-2.95-2-4.85v-.05c0-1.917.675-3.542 2.025-4.875 1.35-1.35 3.025-2.025 5.025-2.025 2 0 3.667.667 5 2 1.35 1.333 2.025 2.95 2.025 4.85v.05c0 1.9-.675 3.525-2.025 4.875-1.35 1.333-3.033 2-5.05 2zm.05-2.65c1.2 0 2.167-.4 2.9-1.2.733-.817 1.1-1.808 1.1-2.975v-.05c0-1.183-.383-2.183-1.15-3-.767-.833-1.733-1.25-2.9-1.25-1.183 0-2.142.408-2.875 1.225-.733.8-1.1 1.792-1.1 2.975v.05c0 1.167.383 2.167 1.15 3 .767.817 1.725 1.225 2.875 1.225zM76.784 12.4v-.15c0-.45.158-.808.475-1.075.333-.267.75-.4 1.25-.4s.908.133 1.225.4c.333.267.5.625.5 1.075v.15c0 .45-.167.817-.5 1.1-.317.267-.725.4-1.225.4-.5 0-.917-.133-1.25-.4-.317-.283-.475-.65-.475-1.1zm.225 15.225v-10.45c0-.433.141-.792.425-1.075.3-.3.658-.45 1.075-.45.416 0 .775.15 1.075.45.3.3.45.658.45 1.075v10.45c0 .417-.15.775-.45 1.075-.284.283-.642.425-1.075.425-.417 0-.775-.142-1.075-.425a1.511 1.511 0 0 1-.425-1.075zm11.503 1.625c-1.817 0-3.492-.525-5.025-1.575-.383-.2-.575-.55-.575-1.05 0-.333.117-.617.35-.85.233-.25.525-.375.875-.375.233 0 .45.058.65.175 1.267.85 2.533 1.275 3.8 1.275.65 0 1.15-.125 1.5-.375.367-.267.55-.617.55-1.05v-.05c0-.633-.883-1.217-2.65-1.75a3.07 3.07 0 0 0-.3-.1c-.6-.167-1.1-.333-1.5-.5a8.701 8.701 0 0 1-1.275-.675c-.45-.3-.792-.675-1.025-1.125-.217-.45-.325-.975-.325-1.575v-.05c0-1.217.442-2.192 1.325-2.925.9-.733 2.025-1.1 3.375-1.1 1.417 0 2.8.358 4.15 1.075.483.25.725.633.725 1.15 0 .35-.125.642-.375.875-.233.233-.525.35-.875.35-.2 0-.4-.05-.6-.15-1.167-.6-2.2-.9-3.1-.9-.567 0-1.017.125-1.35.375-.333.233-.5.542-.5.925v.05c0 .417.225.75.675 1 .45.233 1.133.5 2.05.8a12.824 12.824 0 0 1 1.725.625c.4.167.817.4 1.25.7.45.3.792.667 1.025 1.1.233.433.35.933.35 1.5v.05c0 1.333-.458 2.358-1.375 3.075-.917.717-2.092 1.075-3.525 1.075zm10.274-7.775h6.775c-.1-1.017-.441-1.85-1.025-2.5-.583-.65-1.358-.975-2.325-.975-.916 0-1.683.325-2.3.975-.616.633-.991 1.467-1.125 2.5zm8.525 6.075c-1.3 1.167-2.883 1.75-4.75 1.75-1.933 0-3.55-.633-4.85-1.9-1.283-1.283-1.925-2.933-1.925-4.95v-.05c0-1.917.609-3.542 1.825-4.875 1.217-1.333 2.759-2 4.625-2 1.334 0 2.492.342 3.475 1.025.984.667 1.692 1.483 2.125 2.45.45.95.675 1.958.675 3.025 0 .417-.141.767-.425 1.05-.266.267-.6.4-1 .4h-8.275c.167 1.05.592 1.875 1.275 2.475.684.583 1.525.875 2.525.875 1.15 0 2.192-.383 3.125-1.15.234-.183.492-.275.775-.275.334 0 .617.117.85.35.234.233.35.525.35.875s-.133.658-.4.925zm10.388 1.75c-1.95 0-3.575-.658-4.875-1.975-1.3-1.333-1.95-2.95-1.95-4.85v-.05c0-1.9.65-3.525 1.95-4.875 1.317-1.35 2.959-2.025 4.925-2.025 1.817 0 3.359.55 4.625 1.65.317.283.475.633.475 1.05 0 .383-.141.708-.425.975-.266.267-.591.4-.975.4-.333 0-.633-.1-.9-.3-.9-.75-1.841-1.125-2.825-1.125-1.083 0-1.991.408-2.725 1.225-.733.817-1.1 1.808-1.1 2.975v.05c0 1.183.367 2.183 1.1 3 .75.817 1.7 1.225 2.85 1.225 1.05 0 2.034-.392 2.95-1.175.25-.217.525-.325.825-.325.367 0 .675.133.925.4.25.25.375.558.375.925 0 .4-.141.717-.425.95-1.3 1.25-2.9 1.875-4.8 1.875zm8.182-1.675v-10.45c0-.433.142-.792.425-1.075.3-.3.659-.45 1.075-.45.434 0 .792.15 1.075.45.3.3.45.658.45 1.075v1.35c.367-.85.85-1.542 1.45-2.075.6-.55 1.225-.825 1.875-.825.467 0 .834.142 1.1.425.267.267.4.625.4 1.075 0 .383-.116.708-.35.975-.216.25-.5.408-.85.475-1.116.2-2 .733-2.65 1.6-.65.85-.975 2.033-.975 3.55v3.9c0 .417-.15.775-.45 1.075a1.51 1.51 0 0 1-1.075.425c-.416 0-.775-.142-1.075-.425a1.513 1.513 0 0 1-.425-1.075zm12.163-6.15h6.775c-.1-1.017-.442-1.85-1.025-2.5-.583-.65-1.358-.975-2.325-.975-.917 0-1.683.325-2.3.975-.617.633-.992 1.467-1.125 2.5zm8.525 6.075c-1.3 1.167-2.883 1.75-4.75 1.75-1.933 0-3.55-.633-4.85-1.9-1.283-1.283-1.925-2.933-1.925-4.95v-.05c0-1.917.608-3.542 1.825-4.875 1.217-1.333 2.758-2 4.625-2 1.333 0 2.492.342 3.475 1.025.983.667 1.692 1.483 2.125 2.45.45.95.675 1.958.675 3.025 0 .417-.142.767-.425 1.05-.267.267-.6.4-1 .4h-8.275c.167 1.05.592 1.875 1.275 2.475.683.583 1.525.875 2.525.875 1.15 0 2.192-.383 3.125-1.15.233-.183.492-.275.775-.275.333 0 .617.117.85.35.233.233.35.525.35.875s-.133.658-.4.925zm8.088 1.725c-1.3 0-2.408-.358-3.325-1.075-.9-.733-1.35-1.733-1.35-3v-.05c0-1.383.492-2.433 1.475-3.15.983-.733 2.308-1.1 3.975-1.1 1.217 0 2.4.183 3.55.55v-.325c0-.933-.283-1.642-.85-2.125-.55-.5-1.358-.75-2.425-.75-1.067 0-2.042.175-2.925.525-.183.05-.342.075-.475.075-.35 0-.65-.117-.9-.35-.25-.25-.375-.55-.375-.9 0-.583.275-.983.825-1.2a11.92 11.92 0 0 1 4.25-.775c1.967 0 3.425.492 4.375 1.475.95.933 1.425 2.292 1.425 4.075v6.5c0 .417-.142.767-.425 1.05-.283.267-.633.4-1.05.4-.433 0-.792-.125-1.075-.375a1.19 1.19 0 0 1-.4-.9v-.5c-1.067 1.283-2.5 1.925-4.3 1.925zm.85-2.2c1.017 0 1.858-.258 2.525-.775.667-.533 1-1.217 1-2.05v-.9c-.9-.35-1.9-.525-3-.525-.967 0-1.725.2-2.275.6-.55.383-.825.917-.825 1.6v.05c0 .617.242 1.108.725 1.475.483.35 1.1.525 1.85.525zm14.326 2.15c-2.534 0-3.8-1.292-3.8-3.875V18.4h-.5c-.367 0-.675-.125-.925-.375a1.257 1.257 0 0 1-.375-.925c0-.367.125-.675.375-.925s.558-.375.925-.375h.5v-2.25c0-.417.15-.767.45-1.05.3-.3.658-.45 1.075-.45.416 0 .766.15 1.05.45.3.283.45.633.45 1.05v2.25h2.375c.366 0 .675.125.925.375.266.25.4.558.4.925s-.134.675-.4.925c-.25.25-.559.375-.925.375h-2.375v6.475c0 1.1.541 1.65 1.625 1.65.133 0 .283-.008.45-.025.183-.033.283-.05.3-.05.35 0 .65.125.9.375.25.233.375.525.375.875 0 .567-.267.958-.8 1.175a6.241 6.241 0 0 1-2.075.35zm5.803-16.825v-.15c0-.45.158-.808.475-1.075.333-.267.75-.4 1.25-.4s.908.133 1.225.4c.333.267.5.625.5 1.075v.15c0 .45-.167.817-.5 1.1-.317.267-.725.4-1.225.4-.5 0-.917-.133-1.25-.4-.317-.283-.475-.65-.475-1.1zm.225 15.225v-10.45c0-.433.142-.792.425-1.075.3-.3.658-.45 1.075-.45.417 0 .775.15 1.075.45.3.3.45.658.45 1.075v10.45c0 .417-.15.775-.45 1.075-.283.283-.642.425-1.075.425a1.51 1.51 0 0 1-1.075-.425 1.513 1.513 0 0 1-.425-1.075zm13.253 1.675c-2 0-3.666-.658-5-1.975-1.333-1.333-2-2.95-2-4.85v-.05c0-1.917.675-3.542 2.025-4.875 1.35-1.35 3.025-2.025 5.025-2.025 2 0 3.667.667 5 2 1.35 1.333 2.025 2.95 2.025 4.85v.05c0 1.9-.675 3.525-2.025 4.875-1.35 1.333-3.033 2-5.05 2zm.05-2.65c1.2 0 2.167-.4 2.9-1.2.734-.817 1.1-1.808 1.1-2.975v-.05c0-1.183-.383-2.183-1.15-3-.766-.833-1.733-1.25-2.9-1.25-1.183 0-2.141.408-2.875 1.225-.733.8-1.1 1.792-1.1 2.975v.05c0 1.167.384 2.167 1.15 3 .767.817 1.725 1.225 2.875 1.225zm10.106.975v-10.45c0-.433.142-.792.425-1.075.3-.3.658-.45 1.075-.45.433 0 .792.15 1.075.45.3.3.45.658.45 1.075v.65c1.067-1.533 2.442-2.3 4.125-2.3 1.467 0 2.617.458 3.45 1.375.833.9 1.25 2.125 1.25 3.675v7.05c0 .417-.142.775-.425 1.075-.283.283-.642.425-1.075.425-.433 0-.8-.142-1.1-.425a1.513 1.513 0 0 1-.425-1.075V21.5c0-1.033-.25-1.825-.75-2.375-.483-.567-1.175-.85-2.075-.85-.883 0-1.6.292-2.15.875-.55.583-.825 1.383-.825 2.4v6.075c0 .417-.15.775-.45 1.075-.283.283-.642.425-1.075.425a1.51 1.51 0 0 1-1.075-.425 1.513 1.513 0 0 1-.425-1.075zm20.028 1.625c-1.817 0-3.492-.525-5.025-1.575-.383-.2-.575-.55-.575-1.05 0-.333.117-.617.35-.85.233-.25.525-.375.875-.375.233 0 .45.058.65.175 1.267.85 2.533 1.275 3.8 1.275.65 0 1.15-.125 1.5-.375.367-.267.55-.617.55-1.05v-.05c0-.633-.883-1.217-2.65-1.75a3.018 3.018 0 0 0-.3-.1c-.6-.167-1.1-.333-1.5-.5a8.701 8.701 0 0 1-1.275-.675c-.45-.3-.792-.675-1.025-1.125-.217-.45-.325-.975-.325-1.575v-.05c0-1.217.442-2.192 1.325-2.925.9-.733 2.025-1.1 3.375-1.1 1.417 0 2.8.358 4.15 1.075.483.25.725.633.725 1.15 0 .35-.125.642-.375.875-.233.233-.525.35-.875.35-.2 0-.4-.05-.6-.15-1.167-.6-2.2-.9-3.1-.9-.567 0-1.017.125-1.35.375-.333.233-.5.542-.5.925v.05c0 .417.225.75.675 1 .45.233 1.133.5 2.05.8a12.846 12.846 0 0 1 1.725.625c.4.167.817.4 1.25.7.45.3.792.667 1.025 1.1.233.433.35.933.35 1.5v.05c0 1.333-.458 2.358-1.375 3.075-.917.717-2.092 1.075-3.525 1.075z" fill="#F6F7F8"/></svg>