<svg width="19" height="18" viewBox="0 0 19 18" fill="none" xmlns="http://www.w3.org/2000/svg">
<path d="M19 9C19 13.9706 14.7467 18 9.5 18C4.25328 18 0 13.9706 0 9C0 4.02942 4.25328 0 9.5 0C14.7467 0 19 4.02942 19 9ZM8.40114 13.7654L15.4495 7.08801C15.6889 6.86127 15.6889 6.49361 15.4495 6.26687L14.5828 5.44573C14.3434 5.21895 13.9553 5.21895 13.716 5.44573L7.96774 10.8914L5.28403 8.34892C5.04469 8.12217 4.65661 8.12217 4.41723 8.34892L3.55047 9.17006C3.31113 9.3968 3.31113 9.76445 3.55047 9.9912L7.53434 13.7654C7.77372 13.9922 8.16176 13.9922 8.40114 13.7654Z" fill="white" />
</svg>
