<svg width="57" height="45" viewBox="0 0 57 45" xmlns="http://www.w3.org/2000/svg">
<rect width="57" height="44.276" fill="black" fill-opacity="0" transform="translate(0 0.447998)"/>
<path d="M51.141 11.4824C51.1772 11.9666 51.1772 12.451 51.1772 12.9352C51.1772 27.7054 39.4228 44.724 17.9391 44.724C11.3204 44.724 5.17199 42.8906 0 39.7084C0.940392 39.8121 1.84449 39.8468 2.82107 39.8468C8.28229 39.8468 13.3097 38.0827 17.3243 35.0733C12.1885 34.9695 7.88451 31.7526 6.40162 27.3249C7.12503 27.4286 7.84833 27.4978 8.60792 27.4978C9.65675 27.4978 10.7057 27.3594 11.6822 27.1174C6.32936 26.0796 2.31463 21.5829 2.31463 16.1521V16.0138C3.86978 16.844 5.67831 17.3629 7.59506 17.432C4.44847 15.4257 2.387 12.0012 2.387 8.12704C2.387 6.05164 2.96557 4.14916 3.97833 2.48879C9.729 9.26856 18.3731 13.6961 28.0659 14.1804C27.8851 13.3503 27.7766 12.4856 27.7766 11.6208C27.7766 5.46359 32.9848 0.447998 39.4587 0.447998C42.8223 0.447998 45.8604 1.79703 47.9943 3.97624C50.6345 3.492 53.1662 2.558 55.4087 1.27818C54.5405 3.87254 52.696 6.05175 50.2729 7.43528C52.6238 7.19326 54.9023 6.57049 57 5.70581C55.4089 7.91953 53.4196 9.89111 51.141 11.4824Z" />
</svg>
