<?xml version="1.0" standalone="no"?>
<!DOCTYPE svg PUBLIC "-//W3C//DTD SVG 20010904//EN"
 "http://www.w3.org/TR/2001/REC-SVG-20010904/DTD/svg10.dtd">
<svg version="1.0" xmlns="http://www.w3.org/2000/svg"
 width="700.000000pt" height="700.000000pt" viewBox="0 0 700.000000 700.000000"
 preserveAspectRatio="xMidYMid meet">
<metadata>
Created by potrace 1.11, written by Peter Selinger 2001-2013
</metadata>
<g transform="translate(0.000000,700.000000) scale(0.100000,-0.100000)"
fill="#000000" stroke="none">
<path d="M3395 5866 c-37 -18 -78 -62 -94 -101 -8 -23 -11 -583 -9 -2296 l3
-2265 27 -41 c36 -55 85 -76 178 -76 93 -1 141 20 178 76 l27 41 0 2281 c0
2145 -1 2282 -17 2307 -10 15 -34 39 -54 54 -32 25 -46 28 -123 31 -58 2 -96
-2 -116 -11z"/>
<path d="M2623 5305 c-35 -15 -76 -60 -92 -100 -8 -23 -11 -470 -9 -1825 3
-1764 3 -1795 23 -1824 37 -54 87 -82 153 -85 97 -3 169 39 195 115 11 32 13
367 12 1814 0 976 -5 1786 -9 1800 -26 78 -98 123 -191 119 -30 -1 -67 -8 -82
-14z"/>
<path d="M4194 5302 c-48 -23 -80 -64 -92 -118 -4 -21 -8 -835 -7 -1809 1
-1715 1 -1771 20 -1809 11 -24 36 -50 64 -67 87 -55 216 -32 271 49 l25 37 0
1805 c0 2001 6 1834 -67 1893 -49 39 -151 48 -214 19z"/>
<path d="M4985 4924 c-43 -14 -80 -47 -103 -89 -15 -27 -16 -163 -17 -1425 -1
-767 3 -1410 8 -1428 12 -46 64 -100 110 -116 49 -17 126 -12 173 10 19 9 48
35 62 57 l27 41 0 1421 0 1421 -27 41 c-14 22 -42 48 -62 57 -47 22 -124 27
-171 10z"/>
<path d="M1833 4805 c-27 -16 -49 -40 -62 -68 l-21 -44 2 -1416 3 -1415 31
-39 c42 -53 86 -73 159 -73 83 0 145 39 177 110 14 32 21 2787 7 2841 -21 83
-90 129 -191 129 -49 0 -72 -6 -105 -25z"/>
</g>
</svg>
